<?xml version="1.0" encoding="utf-8"?>
<svg id="master-artboard" viewBox="0 0 350.1351318359375 344.79730224609375" version="1.1" xmlns="http://www.w3.org/2000/svg" x="0px" y="0px" enable-background="new 0 0 1400 980" width="350.1351318359375px" height="344.79730224609375px"><rect id="ee-background" x="0" y="0" width="350.1351318359375" height="344.79730224609375" style="fill: white; fill-opacity: 0; pointer-events: none;"/>

<g transform="matrix(1, 0, 0, 1, -90.74325561523438, -90.74323558807373)"><path fill="#FFFFFF" d="M404.4,203c-6-7.3-13-12.6-19.9-16.5l1.7-2.3c0.4-0.5,0.7-1.1,1.1-1.7c0.5-0.6,1-1.1,1.4-1.8&#10;&#9;&#9;&#9;c0.1,0,0.2,0,0.2-0.1c4.2-1.3,12.1-3.6,18.4-12.2c9.1-12.5,7.2-27.3-4.7-36.1c-4.5-3.3-9.7-5.1-14.8-5.1c-8.1,0-15.5,4.1-21,11.6&#10;&#9;&#9;&#9;l-2,2.7c-3,4.1-3.8,9.2-2.5,13.8c-0.7,0.8-1.5,1.7-2.2,2.7c-0.7,1-1.3,2-1.9,3c-0.5,0.5-0.9,1-1.4,1.6l-3.3,4.5&#10;&#9;&#9;&#9;c-0.6,0.8-1.1,1.6-1.5,2.5c-4.4-4-9.4-7.1-14.9-9.4l0.5-1.6c0.2-0.6,0.4-1.3,0.5-1.9c0.3-0.7,0.6-1.4,0.7-2.1&#10;&#9;&#9;&#9;c0.1,0,0.1-0.1,0.2-0.1c3.6-2.5,10.4-7.3,13.6-17.3c2.7-8.3,1.4-14.7-0.1-18.6c-2.7-6.7-8.2-11.7-15.7-14.1&#10;&#9;&#9;&#9;c-2.7-0.9-5.5-1.3-8.2-1.3c-10.9,0-20,7.2-23.7,18.8l-1,3.1c-1.3,4.1-0.9,8.5,1,12.3c0.3,0.6,0.6,1.1,1,1.6&#10;&#9;&#9;&#9;c-0.5,1-0.9,2.1-1.2,3.2c-0.4,1.2-0.6,2.3-0.9,3.5c-0.3,0.6-0.6,1.3-0.8,2l-1.7,5.4c-0.4,1.3-0.6,2.6-0.7,3.9&#10;&#9;&#9;&#9;c-4.3,0.7-8.4,1.6-12,2.7c0.3-1.3,0.5-2.6,0.5-4v-5.6c0-0.7-0.1-1.3-0.1-2c0.1-0.7,0.1-1.5,0.1-2.2c0.1-0.1,0.1-0.1,0.2-0.2&#10;&#9;&#9;&#9;c2.7-3.5,7.6-10.1,7.6-20.7c0-15.5-10.3-26.3-25.1-26.3c-14.8,0-25.1,10.9-25.1,26.4v3.3c0,5.1,2.4,9.7,6.1,12.6&#10;&#9;&#9;&#9;c-0.1,1.1-0.2,2.2-0.2,3.4c0,1.3,0.1,2.4,0.3,3.6c-0.1,0.7-0.2,1.4-0.2,2.1v5.6c0,0.4,0,0.8,0.1,1.3c-6.9,0.1-13.6,1.4-19.9,3.8&#10;&#9;&#9;&#9;c-7.1,2.7-13.4,6.7-18.7,11.9c-4.8-0.9-9.9-1.3-15.1-1.3c-28.6,0-61.9,13.4-84.8,34.2c-16.7,15.2-23,42.3-16.1,69.2&#10;&#9;&#9;&#9;c7.7,30.3,30.1,52.6,59.8,59.9c4.8,1.2,9.4,2.1,14,2.7c16,11,31.5,16.5,46.2,16.5c4.6,0,9.1-0.5,13.4-1.6&#10;&#9;&#9;&#9;c7.3,7.4,16.8,12.3,25,16.4c12,6.1,23.2,11.8,29.1,22.8c20.3,38,52.9,39.9,59.2,39.9c0.3,0,0.5,0,0.7,0c0.2,0,0.4,0,0.5,0&#10;&#9;&#9;&#9;c6.1-0.3,11.7-3.4,15-8.5c3.3-5.1,4.1-11.5,1.9-17.1c-0.4-1.5,0.5-6.9,1.1-10.8c0.5-3,1-6.1,1.4-9.2c10.5-4.4,24-12.8,32.3-27.9&#10;&#9;&#9;&#9;c4-7.4,6.3-15.5,6.9-24.4c14-13.9,23.7-36.1,15.4-63.1C423.7,242.7,418.5,220,404.4,203z" transform="matrix(1, 0, 0, 1, 4.594594478607178, -2.2972972393035747)"/><path fill="#76C9B1" d="M343.7,237.8c-19.5,1.1-39.1,10.5-46.4,21.9c0.4,0.2,0.8,0.4,1.1,0.6c24.6,13.4,32,39.5,19.6,67.2&#10;&#9;&#9;&#9;c7.9,1.4,24.3,6.7,29.8,27.6c1.2,4.6,1.8,8.9,2.1,13c6.5-1.8,21.2-7.3,28.5-20.7c6.4-11.7,5.8-26.9-1.8-45.2&#10;&#9;&#9;&#9;c-0.6-1.5,0.1-3.2,1.6-3.8c1.5-0.6,3.2,0.1,3.8,1.6c2.9,6.9,4.7,13.3,5.7,19.5c7.8-7,23.5-26.4,4.3-58&#10;&#9;&#9;&#9;C378.5,239.3,356,237.1,343.7,237.8z" transform="matrix(1, 0, 0, 1, 1.1368683772161603e-13, 2.842170943040401e-14)"/><path fill="#76C9B1" d="M313.6,332.7c-1,0-1.9-0.5-2.5-1.4c-0.5-0.9-0.6-1.9-0.1-2.8c13.3-26,7.3-50.8-15.4-63.2&#10;&#9;&#9;&#9;c-1.2-0.7-2.4-1.2-3.6-1.8c0,0,0,0,0,0c0,0,0,0,0,0c-16.5-7.3-33-4.5-39.9-2.7c2.3,4.3,3.3,7.5,3.4,7.6c0.5,1.5-0.4,3.1-1.9,3.6&#10;&#9;&#9;&#9;c-1.5,0.5-3.1-0.4-3.6-1.9c-0.4-1.2-9.6-29.6-36.4-27.5c-27.5,2-42.6,31.3-42.7,31.6c-0.5,1-1.5,1.6-2.6,1.6&#10;&#9;&#9;&#9;c-0.4,0-0.9-0.1-1.3-0.3c-1.4-0.7-2-2.4-1.3-3.9c0.7-1.3,16.6-32.5,47.5-34.8c18.4-1.2,29.6,9.5,35.9,18.8&#10;&#9;&#9;&#9;c6-1.8,24.1-5.8,42.9,1.6c6.3-10.5,20.8-19.3,37.3-23.2c-0.2-3.7-1.3-11.7-7.1-17.9c-5.6-6-14.2-9-25.6-9c-11.3,0-19.9,3-25.5,8.8&#10;&#9;&#9;&#9;c-7.6,7.9-7.2,18.5-7.2,18.6c0.1,1.6-1.2,2.9-2.8,3c-1.6,0-2.9-1.2-3-2.7c0-0.5-0.5-13.1,8.7-22.8c6.7-7.1,16.8-10.7,29.7-10.7&#10;&#9;&#9;&#9;c13.1,0,23.2,3.7,29.9,10.9c6.6,7.1,8.2,15.8,8.5,20.6c2.8-0.5,5.6-0.8,8.4-0.9c23.4-1.3,42.4,8.1,53.5,26.3&#10;&#9;&#9;&#9;c0.7,1.2,1.4,2.3,2,3.4c1.6-18.7-2.2-33.8-11.3-44.9c-15.1-18.3-39.9-19.4-40.1-19.4c-1,0-1.9-0.6-2.4-1.5&#10;&#9;&#9;&#9;c-14.3-26.8-46-17.7-58.5-12.8c4.5,2.8,7.2,5.1,7.6,5.4c1.2,1,1.3,2.9,0.3,4.1c-1,1.2-2.9,1.3-4.1,0.3&#10;&#9;&#9;&#9;c-0.3-0.2-25.2-21.2-49.9-11.9c-24.5,9.3-24.1,42.3-24.1,42.7c0,1.6-1.2,2.9-2.8,2.9c0,0,0,0-0.1,0c-1.6,0-2.9-1.3-2.9-2.8&#10;&#9;&#9;&#9;c0-0.9-0.2-15,6.3-28.1c-27.3-9.1-65.8,5.6-88.1,25.9c-10.6,9.6-14.5,28.8-9.7,47.7c5.8,22.6,21.7,38.7,43.8,44&#10;&#9;&#9;&#9;c25.4,6.2,37.5,2.7,43.3-1.3c5.3-3.7,5.8-8.2,5.8-8.4c0.2-1.6,1.6-2.7,3.2-2.6c1.6,0.2,2.7,1.5,2.6,3.1c0,0.3-0.7,7.2-8,12.4&#10;&#9;&#9;&#9;c-5.1,3.7-12.1,5.6-20.7,5.8c14.9,9.1,28.2,11.7,39.8,7.9c21.2-7.1,29.5-34.1,29.5-34.4c0.5-1.5,2.1-2.4,3.6-1.9&#10;&#9;&#9;&#9;c1.5,0.5,2.4,2.1,1.9,3.6c-0.3,1-6.3,20.4-21.5,31.9c2.6,8.9,12.5,13.9,23.9,19.7c13.8,7,29.4,14.9,38.5,32&#10;&#9;&#9;&#9;c12,22.5,29.1,27.2,36.6,28.1c-0.9-5.4,0.1-11.3,1.2-17.9c1.6-9.9,3.5-21.1-0.1-34.9C336.1,333.1,314.6,332.7,313.6,332.7z" transform="matrix(1, 0, 0, 1, 1.1368683772161603e-13, 2.842170943040401e-14)"/><path d="M 268.600006 149.899994 H 272.900006 V 155.499994 H 268.600006 V 149.899994 Z" fill="#EF373B" transform="matrix(1, 0, 0, 1, 1.1368683772161603e-13, 2.842170943040401e-14)"/><path fill="#EF373B" d="M266.8,124.5c0-3.6,1.3-6,4.6-6c3.3,0,4.6,2.3,4.6,6c0,9.4-7.6,10.7-7.6,19.6c0,0.9,0.1,1.6,0.3,2.3h4.1&#10;&#9;&#9;&#9;c-0.2-0.7-0.3-1.5-0.3-2.2c0-7.8,8.1-9.7,8.1-19.5c0-6.2-2.8-10.3-9.1-10.3c-6.2,0-9,4.2-9,10.3v3.3h4.2V124.5z" transform="matrix(1, 0, 0, 1, 1.1368683772161603e-13, 2.842170943040401e-14)"/><path fill="#EF373B" d="M324.3,127.8c1.1-3.4,3.1-5.3,6.2-4.3c3.2,1,3.7,3.6,2.6,7.1c-2.9,8.9-10.5,7.9-13.2,16.3&#10;&#9;&#9;&#9;c-0.3,0.9-0.4,1.6-0.4,2.3l3.9,1.2c0-0.7,0.2-1.5,0.4-2.2c2.4-7.4,10.6-6.7,13.6-16.1c1.9-5.9,0.5-10.6-5.5-12.6&#10;&#9;&#9;&#9;c-5.9-1.9-9.8,1.2-11.7,7.1l-1,3.2l4,1.3L324.3,127.8z" transform="matrix(1, 0, 0, 1, 4.594594478607178, -2.2972972393035747)"/><path d="M 322.29998779296875 153.8000030517578 L 318.20001220703125 152.5 L 316.5 157.89999389648438 L 320.6000061035156 159.1999969482422 Z" fill="#EF373B" transform="matrix(1, 0, 0, 1, 1.1368683772161603e-13, 2.842170943040401e-14)"/><path fill="#EF373B" d="M376.3,169.9c4.6-6.3,12.2-3.1,18-11c3.7-5,3.8-9.9-1.2-13.6c-5-3.7-9.7-1.9-13.4,3l-2,2.7l3.4,2.5&#10;&#9;&#9;&#9;l2.1-2.9c2.1-2.9,4.6-4,7.3-2.1c2.7,2,2.4,4.6,0.2,7.6c-5.5,7.6-12.5,4.2-17.7,11.3c-0.5,0.8-0.9,1.4-1.1,2.1l3.3,2.4&#10;&#9;&#9;&#9;C375.5,171.2,375.8,170.5,376.3,169.9z" transform="matrix(1, 0, 0, 1, 1.1368683772161603e-13, 2.842170943040401e-14)"/><path d="M 367.700012 172.899994 H 372.000012 V 178.499994 H 367.700012 V 172.899994 Z" transform="matrix(0.8073000907897949, 0.5902000069618225, -0.5902000069618225, 0.8073000907897949, 174.9622039794923, -184.40960693359375)" fill="#EF373B"/><path fill="#EF373B" d="M403.8,269.7c3.6-23.7-0.4-42.7-11.8-56.4c-14.6-17.6-36.5-20.8-42.7-21.4c-19-32.9-60.9-16-69.2-12.3&#10;&#9;&#9;&#9;c-10.6-5.3-26-9.9-41.8-3.9c-8.5,3.2-14.4,8.8-18.5,15c-29.5-10.5-71.1,5.1-94.9,26.7c-12.1,11-16.7,32.5-11.4,53.4&#10;&#9;&#9;&#9;c6.2,24.4,24.2,42.4,48,48.2c5.9,1.4,11.2,2.4,16.3,2.9c0,0,0,0,0,0c14.5,10.5,27.9,15.8,40.1,15.8c4.4,0,8.6-0.7,12.7-2&#10;&#9;&#9;&#9;c2.4-0.8,4.7-1.9,6.8-3.1c3.9,10.2,14.7,15.8,26.2,21.7c13,6.6,27.7,14.1,36,29.6c16.1,30.2,41,31.4,45,31.4c0.3,0,0.5,0,0.5,0&#10;&#9;&#9;&#9;c0.9,0,1.8-0.5,2.3-1.3c0.5-0.8,0.6-1.7,0.3-2.6c-1.9-5.1-0.9-11.3,0.4-19c0.9-5.4,1.9-11.5,2-18.4c6.5-1.6,24.4-7.4,33.4-23.9&#10;&#9;&#9;&#9;c3.8-7,5.5-15,5-23.9c5.8-4.4,26.9-23.4,14.7-55.2C403.5,270.6,403.7,270.2,403.8,269.7z M342.4,391.4c-1.1,6.6-2.1,12.4-1.2,17.9&#10;&#9;&#9;&#9;c-7.5-1-24.5-5.6-36.6-28.1c-9.1-17-24.7-25-38.5-32c-11.5-5.8-21.3-10.9-23.9-19.7c15.2-11.5,21.2-30.9,21.5-31.9&#10;&#9;&#9;&#9;c0.5-1.5-0.4-3.1-1.9-3.6c-1.5-0.4-3.1,0.4-3.6,1.9c-0.1,0.3-8.4,27.3-29.5,34.4c-11.5,3.9-24.9,1.2-39.8-7.9&#10;&#9;&#9;&#9;c8.6-0.2,15.6-2.1,20.7-5.8c7.3-5.3,8-12.2,8-12.4c0.1-1.6-1-2.9-2.6-3.1c-1.6-0.2-3,1-3.2,2.6c0,0.2-0.6,4.8-5.8,8.4&#10;&#9;&#9;&#9;c-5.7,4-17.9,7.5-43.3,1.3c-22-5.3-38-21.4-43.8-44c-4.8-18.9-0.9-38,9.7-47.7c22.2-20.2,60.7-35,88.1-25.9&#10;&#9;&#9;&#9;c-6.5,13.1-6.4,27.2-6.3,28.1c0,1.6,1.3,2.8,2.9,2.8c0,0,0,0,0.1,0c1.6,0,2.9-1.4,2.8-2.9c0-0.3-0.4-33.4,24.1-42.7&#10;&#9;&#9;&#9;c24.8-9.4,49.7,11.6,49.9,11.9c1.2,1,3,0.9,4.1-0.3c1-1.2,0.9-3-0.3-4.1c-0.3-0.3-3.1-2.6-7.6-5.4c12.5-4.9,44.2-13.9,58.5,12.8&#10;&#9;&#9;&#9;c0.5,0.9,1.4,1.5,2.4,1.5c0.2,0,25,1.2,40.1,19.4c9.2,11.1,12.9,26.2,11.3,44.9c-0.6-1.1-1.3-2.3-2-3.4&#10;&#9;&#9;&#9;c-11.1-18.3-30.1-27.6-53.5-26.3c-2.8,0.2-5.6,0.5-8.4,0.9c-0.3-4.8-1.9-13.5-8.5-20.6c-6.7-7.2-16.8-10.9-29.9-10.9&#10;&#9;&#9;&#9;c-13,0-23,3.6-29.7,10.7c-9.2,9.7-8.8,22.3-8.7,22.8c0.1,1.6,1.4,2.8,3,2.7c1.6-0.1,2.8-1.4,2.8-3c0-0.1-0.4-10.8,7.2-18.6&#10;&#9;&#9;&#9;c5.6-5.8,14.2-8.8,25.5-8.8c11.4,0,20.1,3,25.6,9c5.8,6.2,6.9,14.1,7.1,17.9c-16.5,3.9-31,12.7-37.3,23.2&#10;&#9;&#9;&#9;c-18.8-7.4-36.9-3.4-42.9-1.6c-6.3-9.3-17.5-20.1-35.9-18.8c-30.9,2.3-46.8,33.4-47.5,34.8c-0.7,1.4-0.1,3.2,1.3,3.9&#10;&#9;&#9;&#9;c0.4,0.2,0.9,0.3,1.3,0.3c1.1,0,2.1-0.6,2.6-1.6c0.1-0.3,15.2-29.6,42.7-31.6c26.8-2,36.1,26.3,36.4,27.5c0.5,1.5,2.1,2.3,3.6,1.9&#10;&#9;&#9;&#9;c1.5-0.5,2.4-2.1,1.9-3.6c0-0.1-1.1-3.3-3.4-7.6c6.8-1.7,23.4-4.6,39.9,2.7c0,0,0,0,0,0c0,0,0,0,0,0c1.2,0.5,2.4,1.1,3.6,1.8&#10;&#9;&#9;&#9;c22.7,12.4,28.8,37.2,15.4,63.2c-0.5,0.9-0.4,2,0.1,2.8c0.5,0.9,1.5,1.4,2.5,1.4c0.9,0,22.4,0.4,28.6,23.8&#10;&#9;&#9;&#9;C345.9,370.3,344,381.5,342.4,391.4z M387.7,319.3c-1-6.1-2.9-12.6-5.7-19.5c-0.6-1.5-2.3-2.1-3.8-1.6c-1.5,0.6-2.2,2.3-1.6,3.8&#10;&#9;&#9;&#9;c7.6,18.3,8.2,33.5,1.8,45.2c-7.3,13.4-22,18.9-28.5,20.7c-0.3-4.1-0.9-8.4-2.1-13c-5.5-20.9-21.9-26.3-29.8-27.6&#10;&#9;&#9;&#9;c12.5-27.7,5-53.8-19.6-67.2c-0.4-0.2-0.8-0.4-1.1-0.6c7.3-11.4,26.9-20.8,46.4-21.9c12.3-0.7,34.8,1.5,48.3,23.6&#10;&#9;&#9;&#9;C411.2,292.9,395.5,312.3,387.7,319.3z" transform="matrix(1, 0, 0, 1, 4.594594478607178, -2.2972972393035747)"/></g>

</svg>